# xmcd
# Copyright (C) 1995-1998 Ti Kan
#
# Track frame offsets:
#       150
#       14222
#       24609
#       35584
#       47470
#       59262
#       71573
#       85420
#       103399
#       117287
#       128499
#       146202
#
# Disc length: 2091 seconds
#
# Revision: 0
# Processed by: cddbd v1.5.2PL0 Copyright (c) Steve Scherf et al.
# Submitted via: CD-Transfer v1.0
#
DISCID=af08290c
DTITLE=Last Shadow Puppets, The - A. Turner, M. Kane
DYEAR=08
DGENRE=
TTITLE0=The Age Of The Understatement
TTITLE1=Standing Next To Me
TTITLE2=Calm Like You
TTITLE3=Separate And Ever Deadly
TTITLE4=Chamber, The
TTITLE5=Only The Truth
TTITLE6=My Mistakes Were Made For You
TTITLE7=Black Plant
TTITLE8=I Don't Like You Anymore
TTITLE9=In My Room
TTITLE10=Meeting Place, The
TTITLE11=Time Has Come Again
EXTD=
EXTT0=
EXTT1=
EXTT2=
EXTT3=
EXTT4=
EXTT5=
EXTT6=
EXTT7=
EXTT8=
EXTT9=
EXTT10=
EXTT11=
PLAYORDER=
